<svg xmlns="http://www.w3.org/2000/svg" xmlns:xlink="http://www.w3.org/1999/xlink" width="778.984" height="814.204" viewBox="0 0 778.984 814.204">
  <defs>
    <clipPath id="clip-path">
      <path id="Path_171" data-name="Path 171" d="M636.048,651.93c0,193.563,149.109,350.481,333.041,350.481A317.486,317.486,0,0,0,1077,983.608s43.275,32.252,93.839,30.68c31.229-.959,104.949-39.922,128.383-138.035,6.554-27.431,2.885-194.735,2.885-224.3,0-108.846-47.147-206.107-121.12-270.4C1123.412,331.517,1048.68,200.14,968.178,200.14c-80.477,0-375.3,82.8-439.229,272.5C496.86,567.825,636.048,543.057,636.048,651.93Z" transform="translate(-524.145 -200.14)"/>
    </clipPath>
  </defs>
  <g id="symptoms" transform="translate(-378.263 -1184.034)">
    <g id="Group_39" data-name="Group 39" transform="translate(378.263 1184.034)">
      <g id="Group_38" data-name="Group 38" clip-path="url(#clip-path)">
        <g id="Group_8" data-name="Group 8" transform="translate(170.536 487.146)">
          <path id="Path_144" data-name="Path 144" d="M780.185,394.865c-5.314,7.777-7.744,17.258-10.655,26.339A220.811,220.811,0,0,1,748.9,466.959c-8.351,14.009-18.7,29.162-15.766,45.382,3.669,2.45,6.782-3.915,10.5-6.285,4.3-2.743,10.249.826,11.97,5.779s.38,10.493-1.417,15.42c-1.088,2.93-2.227,6.578-.253,8.922,2.176,2.583,6.124,1.385,9.263.319a45.467,45.467,0,0,1,17.082-2.4c2.86.16,6.149.879,7.465,3.569.886,1.838.557,4.022.81,6.072.936,7.457,11.666,10.813,16.323,5.087,2.682-3.3,2.986-7.99,3.163-12.331q2.7-67.912,5.39-135.851C814.374,376.676,790.561,379.685,780.185,394.865Z" transform="translate(-732.629 -383.056)" fill="#f1ecdf"/>
          <path id="Path_145" data-name="Path 145" d="M777.2,389.63c2.354,10.546.3,21.572-1.8,32.172q-8.959,45.3-19.183,90.31c-.354,1.6-.81,3.329-2.025,4.341-2.505,2.051-6.25-.186-9.338.666-3.341.932-6.124,5.034-8.427.693-1.443-2.717,3.644-12.89,4.5-15.607q6.036-18.776,12.072-37.525Q765.117,427.168,777.2,389.63Z" transform="translate(-706.388 -372.121)" fill="#e2ded2"/>
        </g>
        <g id="Group_37" data-name="Group 37" transform="translate(32.654 62.093)">
          <g id="Group_36" data-name="Group 36">
            <g id="Group_10" data-name="Group 10" transform="translate(168.55 275.338)">
              <g id="Group_9" data-name="Group 9" transform="translate(0 3.94)">
                <path id="Path_146" data-name="Path 146" d="M948.8,479.819c-6.656,27.724-19.562,58.005-44.085,55.129-44.464-5.167-94.573-15.154-193.043-66.687-.481-.266-47.906-33.876-47.906-33.876s-24.067-32.411-20.929-48.2c-2.151-.985-6.3-.746-7.9,1.918-6.251,10.466-2.1,23.7-2.1,23.7s-48.818-33.69-49.906-28.284c-1.063,5.407,22.624,25.7,22.624,25.7s-38.872-26.9-38.239-21.2c.253,2.21,0,0,30.141,28.47,0,0-33.077-16.326-29.635-10.174,4.328,7.723,26.724,24.049,26.724,24.049s-25.712-12.3-22.65-7.457,65.495,46.926,65.495,46.926,76.124,68.285,88.119,77.26c.228,0,.38-.053.607-.053,74.934,55.528,172.341,109.645,216.729,96.755,37.708-10.946,74.732-86.954,93-129.966Z" transform="translate(-567.31 -237.49)" fill="#f29792"/>
                <path id="Path_147" data-name="Path 147" d="M706.382,328.321c-61.041.613-123.929,58.191-123.929,58.191s71.113,178.623,59.674,214.656c-8.453,26.632-80.957-3.356-80.957-3.356L537.609,701.386c57.219,35.634,111.807,79.763,165.736,98.885,37.075,13.13,75.111-.053,101.127-27.7,35.278-37.5,44.819-116.33,42.111-162.59C827.324,458.367,762.842,327.735,706.382,328.321Z" transform="translate(-303.308 -328.319)" fill="#fff"/>
              </g>
              <path id="Path_148" data-name="Path 148" d="M561.982,448.656c22.675-74.464,32.823-117.342,32.823-117.342s29.407-3.036,70.581-4.474c12.4,9.667,31.28,20.746,53.677,20.746,39.58,0,58.13-18.749,58.206-18.829,30.444,2.477,60.231,6.951,85.31,14.568,49.779,15.127,48.463,49.456,63.394,90.363,23.359,64.077-23.358,420.2-23.358,420.2L720.962,968.172,600.955,860.5C600.93,860.5,545.178,503.838,561.982,448.656Z" transform="translate(-442.5 -326.84)" fill="#fff"/>
            </g>
            <g id="Group_35" data-name="Group 35">
              <g id="Group_33" data-name="Group 33" transform="translate(0)">
                <g id="Group_31" data-name="Group 31" transform="translate(122.142)">
                  <path id="Path_149" data-name="Path 149" d="M629.04,535.89c-2.581-43.624,59.725-52.918,67.216-91.828,3.037-15.766-4.328-31.666-12.957-45.088s-18.98-26.233-23.08-41.759c-8.276-31.346,11.692-63.971,37-83.519A150.7,150.7,0,0,1,783.59,242.4c28.8-.985,57.371,6.445,86.2,5.939,14.754-.266,26.193-6.711,45.426-21.732a46.427,46.427,0,0,1,6.15,2.663c37.657,19.015,62.458,57.526,65.722,100.4a251.885,251.885,0,0,1,.4,34.143c-1.923,32.6-13.084,67.273-39.732,85.2-27.154,18.27-57.649,17.87-84.171,37.1-22.119,16.033-38.872,41.44-55.9,63.012-37.783,47.911-114.16,59.1-161.762,19.042C636.354,560.126,629.774,548.541,629.04,535.89Z" transform="translate(-628.962 -218.207)" fill="#01143f"/>
                  <g id="Group_30" data-name="Group 30" transform="translate(229.923)">
                    <g id="Group_26" data-name="Group 26" transform="translate(0 6.411)">
                      <g id="Group_25" data-name="Group 25">
                        <g id="Group_24" data-name="Group 24">
                          <g id="Group_23" data-name="Group 23">
                            <g id="Group_19" data-name="Group 19">
                              <g id="Group_12" data-name="Group 12" transform="translate(28.061)">
                                <g id="Group_11" data-name="Group 11">
                                  <path id="Path_150" data-name="Path 150" d="M646.909,229.984a62.856,62.856,0,0,0-17.31,9.934c-48.792,39.149-29.154,127.063,6.833,169.568,19.917,23.543,51.121,36.753,80.3,28.9,42.693-11.505,60.307-57.872,56.207-101.229-3.062-32.3-17.209-64-40.669-85.25C708.861,230.65,675.455,219.2,646.909,229.984Z" transform="translate(-600.471 -225.862)" fill="#f29792"/>
                                </g>
                              </g>
                              <g id="Group_14" data-name="Group 14" transform="translate(0 101.645)">
                                <g id="Group_13" data-name="Group 13">
                                  <path id="Path_151" data-name="Path 151" d="M711.3,318.842c-8.554,7.084-22.422,8.868-32.469,4.048s-17.588-15.793-19.107-27.724c-1.366-10.706,2.43-22.344,10.6-27.937,8.149-5.619,21.612-3.808,27.205,5.193Z" transform="translate(-659.45 -264.028)" fill="#f29792"/>
                                </g>
                              </g>
                              <g id="Group_16" data-name="Group 16" transform="translate(37.145 127.483)">
                                <g id="Group_15" data-name="Group 15">
                                  <path id="Path_152" data-name="Path 152" d="M624.92,408.729l6.074-135,93.535,11.718,2.48,133.188C693.1,414.428,659.034,411.312,624.92,408.729Z" transform="translate(-624.92 -273.73)" fill="#f29792"/>
                                </g>
                              </g>
                              <g id="Group_18" data-name="Group 18" transform="translate(64.021 183.597)">
                                <g id="Group_17" data-name="Group 17">
                                  <path id="Path_153" data-name="Path 153" d="M699.7,345.747V324.974s-41.63,8.469-74.5-30.174C625.2,294.8,642.206,336.133,699.7,345.747Z" transform="translate(-625.2 -294.8)" fill="#1f1a42"/>
                                </g>
                              </g>
                            </g>
                            <path id="Path_154" data-name="Path 154" d="M678.429,288.248c-6.1,0-11.06-3.915-11.06-8.735,0-3.622,2.784-6.711,6.757-8.043" transform="translate(-646.624 -150.006)" fill="none" stroke="#e37d7a" stroke-linecap="round" stroke-miterlimit="10" stroke-width="1.762"/>
                            <g id="Group_22" data-name="Group 22" transform="translate(95.784 91.385)">
                              <path id="Path_155" data-name="Path 155" d="M658.768,283.114c-.633,5.14-7.314,8.5-14.906,7.537-7.618-.959-13.286-5.912-12.653-11.052s7.314-8.5,14.906-7.537C653.732,273.047,659.4,278,658.768,283.114Z" transform="translate(-631.161 -240.678)" fill="#f58c89"/>
                              <path id="Path_156" data-name="Path 156" d="M621.209,286.893l5.34-5.513c-5.669-2.344-13.489-10.44-13.489-10.44l2.809,14.248A3.138,3.138,0,0,0,621.209,286.893Z" transform="translate(-553.085 -242.272)" fill="#ec4e66" stroke="#ec4e66" stroke-miterlimit="10" stroke-width="1.722"/>
                              <path id="Path_157" data-name="Path 157" d="M600.5,278.975c0,5.167,6.226,9.348,13.894,9.348a18.86,18.86,0,0,0,4.5-.559,130.917,130.917,0,0,0,.3-17.551,19.876,19.876,0,0,0-4.808-.612C606.722,269.627,600.5,273.808,600.5,278.975Z" transform="translate(-514.101 -244.501)" fill="#f58c89"/>
                              <g id="Group_20" data-name="Group 20" transform="translate(11.208 3.169)">
                                <path id="Path_158" data-name="Path 158" d="M651.165,262.815a46.667,46.667,0,0,1-.607,14.328,12.092,12.092,0,0,1-2.834,5.806,6.268,6.268,0,0,1-5.466,1.491c-4.125-.346-7.137-4.368-9.11-8.5a56.4,56.4,0,0,1-4.1-13.742v-.053a.931.931,0,0,0-1.037-.772.951.951,0,0,0-.734,1.012,47.837,47.837,0,0,0,3.492,14.728,22.234,22.234,0,0,0,4.176,6.552A11.373,11.373,0,0,0,641.9,287.4a10.289,10.289,0,0,0,4.024-.24c.658-.266,1.316-.506,1.949-.826l1.7-1.3a14.016,14.016,0,0,0,3.417-7.271,41.458,41.458,0,0,0-.3-15.207.773.773,0,0,0-.886-.639.782.782,0,0,0-.607.852Z" transform="translate(-627.274 -261.366)" fill="#222a46"/>
                              </g>
                              <g id="Group_21" data-name="Group 21" transform="translate(76.854)">
                                <path id="Path_159" data-name="Path 159" d="M621.991,261.519a47.459,47.459,0,0,1-.531,12.011,11.489,11.489,0,0,1-2.05,4.98,4.144,4.144,0,0,1-4.049,1.465,6.357,6.357,0,0,1-4.125-2.477,21.67,21.67,0,0,1-2.809-4.9,56.79,56.79,0,0,1-3.138-11.585v-.053a.892.892,0,0,0-1.771.213A44.786,44.786,0,0,0,606,273.636a21.567,21.567,0,0,0,3.163,5.753,9.157,9.157,0,0,0,5.846,3.542,4.94,4.94,0,0,0,1.772.027,5.193,5.193,0,0,0,1.772-.4,6.7,6.7,0,0,0,2.936-2.21,13.461,13.461,0,0,0,2.455-6.338,39.68,39.68,0,0,0-.4-12.73.773.773,0,0,0-.886-.639.8.8,0,0,0-.607.852Z" transform="translate(-603.516 -260.176)" fill="#222a46"/>
                              </g>
                            </g>
                          </g>
                        </g>
                      </g>
                    </g>
                    <g id="Group_29" data-name="Group 29" transform="translate(17.654)">
                      <g id="Group_28" data-name="Group 28" transform="translate(18.454 113.574)">
                        <path id="Path_160" data-name="Path 160" d="M602.916,281.283a126.158,126.158,0,0,1,25.333,2.317c17.436,3.6,38.416,10.36,57.978,9.215,20.372-1.172,31.786-21.039,45.224-19.069,0,0,.253,12.917,0,15.74-4.808,55.581-46.565,99.844-116.16,62.186-1.316-.719-2.758-1.278-4.125-1.944C611.166,349.754,591.68,307.515,602.916,281.283Z" transform="translate(-563.918 -253.612)" fill="#f1ecdf"/>
                        <g id="Group_27" data-name="Group 27">
                          <path id="Path_161" data-name="Path 161" d="M649.742,266.1l40.82,29.988.962,10.813-42.744-36.38Z" transform="translate(-648.78 -266.1)" fill="#f1ecdf"/>
                          <path id="Path_162" data-name="Path 162" d="M647.01,286.96l42.238,30.015.177,10.893-42.415-33.53Z" transform="translate(-642.202 -231.405)" fill="#f1ecdf"/>
                        </g>
                      </g>
                      <path id="Path_163" data-name="Path 163" d="M779.44,302.593s-54.942,5.619-99.659-45.834c0,0-20.828,104.239-57.9,84.691L603.658,321.1s-9.414-104.532,85.538-97.288C689.17,223.815,750.388,226.212,779.44,302.593Z" transform="translate(-603.4 -223.455)" fill="#01143f"/>
                    </g>
                  </g>
                </g>
                <g id="Group_32" data-name="Group 32" transform="translate(0 181.001)">
                  <path id="Path_164" data-name="Path 164" d="M653.49,365.967s36.113,41.786,131.091,38.164c94.978-3.649,199.875-46.18,228.852-17.018,0,0,76.225,17.178,55.5-9.668s-87.993-95.024-150.375-85.037c-62.382,9.96-135.418,64.69-217.59,19.948C700.966,312.356,652.6,333.4,653.49,365.967Z" transform="translate(-653.478 -291.418)" fill="#ec4e66"/>
                  <path id="Path_165" data-name="Path 165" d="M634.819,305.977s120.841,19.069,137.417,28.976c16.576,9.881,20.626,64.8,7.289,74.81-45.806,34.462-160.751-30.973-165.154-65.888C609.967,308.933,615.914,302.515,634.819,305.977Z" transform="translate(-266.006 -268.58)" fill="#f15223"/>
                </g>
              </g>
              <g id="Group_34" data-name="Group 34" transform="translate(233.645 150.457)">
                <path id="Path_166" data-name="Path 166" d="M618.6,652.936c25.965,10.333,57.573,16.858,69.366-5.353,21.385-40.268,42.136-88.046,57.447-200.248.076-.559.4-59.656.4-59.656s-12.1-38.8-26.547-45.222c.456-2.37,3.012-5.7,6.074-5.513,11.971.746,20.145,11.852,20.145,11.852s1.063-60.3,6-58.112c4.935,2.21,7.567,33.716,7.567,33.716s.81-48.045,4.986-44.236c1.62,1.465,0,0,5.466,41.626,0,0,5.922-37.125,8.858-30.707,3.67,8.069,3.9,36.22,3.9,36.22s4.91-28.63,7.035-23.3c2.126,5.353-.051,81.894-.051,81.894s10.933,103.04,11.211,118.274c-.127.187-.278.293-.4.479,1.417,94.731-11.211,207.519-46.97,237.374-30.369,25.354-112.389,12.837-157.284,3.489Z" transform="translate(-469.111 -279.949)" fill="#f29792"/>
                <path id="Path_167" data-name="Path 167" d="M608.858,364.527c29.2-38.723,100.469-36.939,100.469-36.939s49.729,191.14,85.108,202.192c26.142,8.176,48.767-179.368,48.767-179.368l90.625,30.228c11.186,186.852.354,258.52-15.311,314.741-10.755,38.643-43.148,62.985-80.147,68.977-50.209,8.1-118.716-29.136-154.145-57.952C574.011,603.258,574.34,410.281,608.858,364.527Z" transform="translate(-588.433 -200.736)" fill="#fff"/>
                <path id="Path_168" data-name="Path 168" d="M631.65,459.085c16.855-26.526,29-71.721,34.62-89.005" transform="translate(-425.648 -130.041)" fill="none" stroke="#503caa" stroke-linecap="round" stroke-miterlimit="10" stroke-width="4"/>
                <path id="Path_169" data-name="Path 169" d="M668.846,368.35s40.365,302.729-82.982,328.962" transform="translate(-318.669 -132.918)" fill="none" stroke="#503caa" stroke-linecap="round" stroke-miterlimit="10" stroke-width="4"/>
              </g>
            </g>
          </g>
        </g>
        <path id="Path_170" data-name="Path 170" d="M653.49,365.967s36.113,41.786,131.091,38.164c94.978-3.649,199.875-46.18,228.852-17.018,0,0,76.225,17.178,55.5-9.668s-87.993-95.024-150.375-85.037c-62.382,9.96-135.418,64.69-217.59,19.948C700.966,312.356,652.6,333.4,653.49,365.967Z" transform="translate(-620.824 -48.324)" fill="#f15223"/>
      </g>
    </g>
  </g>
</svg>
